<?xml version="1.0" encoding="utf-8"?>
<svg version="1.1" xmlns="http://www.w3.org/2000/svg" xmlns:xlink="http://www.w3.org/1999/xlink" x="0px" y="0px"
	 viewBox="0 0 230 22" style="enable-background:new 0 0 230 22;" xml:space="preserve">
<path d="M223,5.7v2c0.2-0.8,0.5-1.4,0.8-1.8c0.7-0.9,1.8-1.4,3-1.3c0.9,0,1.6,0.3,2.2,0.9s0.9,1.3,0.9,2.1
	c0,0.7-0.2,1.2-0.6,1.6c-0.4,0.4-0.9,0.6-1.5,0.6c-0.5,0-0.8-0.2-1.1-0.4c-0.3-0.3-0.5-0.6-0.5-1c0-0.2,0.1-0.5,0.3-0.9h-0.1
	c-1.1,0-1.8,0.6-2.2,1.7c-0.3,0.9-0.4,2-0.4,3.2v0.9c0,0.6,0,1,0.1,1.1c0.1,0.1,0.2,0.1,0.3,0.1c0.1,0,0.3,0,0.6-0.1
	c0.3-0.1,0.4-0.1,0.6-0.1c0.4,0,0.6,0.1,0.9,0.4c0.3,0.3,0.4,0.6,0.4,0.9c0,0.5-0.1,0.9-0.5,1.2c-0.3,0.3-0.7,0.5-1.1,0.5
	c-0.2,0-0.7,0-1.4-0.1c-1-0.1-2.1-0.1-3.1,0c-0.8,0.1-1.2,0.1-1.4,0.1c-1,0-1.5-0.5-1.5-1.6c0-0.9,0.4-1.3,1.2-1.3
	c0.1,0,0.3,0,0.4,0.1c0.2,0,0.3,0.1,0.4,0.1c0.3,0,0.4-0.5,0.4-1.3V9.1c0-0.9-0.1-1.4-0.4-1.4c-0.1,0-0.2,0-0.4,0.1
	s-0.3,0.1-0.4,0.1c-0.8,0-1.1-0.4-1.1-1.3c0-0.5,0.1-0.9,0.4-1.2c0.3-0.3,0.6-0.5,1-0.5c0.2,0,0.4,0,0.7,0.1c0.5,0.1,1.1,0.1,1.6,0
	c0.4-0.1,0.6-0.1,0.8-0.1C222.7,4.9,223,5.2,223,5.7L223,5.7z M210.6,7.6c-0.7,0-1.3,0.3-1.7,0.9c-0.4,0.6-0.6,1.5-0.6,2.5
	c0,1.1,0.2,1.9,0.6,2.5c0.4,0.6,1,0.9,1.7,0.9c1.5,0,2.2-1.1,2.2-3.5C212.9,8.7,212.1,7.6,210.6,7.6z M210.7,17.4
	c-2,0-3.5-0.6-4.6-1.7c-1.1-1.1-1.6-2.7-1.6-4.7c0-2,0.5-3.6,1.6-4.7c1.1-1.1,2.6-1.7,4.5-1.7c1.7-0.1,3.3,0.5,4.5,1.7
	c1.1,1.1,1.6,2.7,1.6,4.6c0,2-0.5,3.7-1.6,4.8C214.1,16.8,212.6,17.4,210.7,17.4L210.7,17.4z M199.1,8.2v1l0,1.5l0,1.6l0,0.7
	c0,0.9,0.3,1.4,0.9,1.4c0.6,0,0.9-0.4,0.9-1.3c0-0.1,0-0.2,0-0.3v-0.3c0-0.1,0-0.2,0-0.2c0-0.9,0.4-1.3,1.3-1.3c1,0,1.5,0.8,1.5,2.4
	c0,1.3-0.4,2.2-1.1,3c-0.9,0.8-2,1.1-3.1,1.1c-2.6,0-4-1.4-4-4.2c0-0.4,0-1.1,0.1-2c0-0.9,0.1-1.6,0.1-2V8.4c0-0.4,0-0.7-0.1-0.8
	c-0.1-0.1-0.3-0.2-0.5-0.2h-0.4c-0.3,0-0.6-0.1-0.7-0.3c-0.2-0.2-0.3-0.5-0.3-0.9c0-0.4,0.1-0.7,0.3-0.9c0.2-0.3,0.4-0.4,0.7-0.4
	h0.5c0.4,0,0.6-0.1,0.7-0.3c0-0.1,0.1-0.3,0.1-0.6V2.8c0-0.6,0.1-0.9,0.4-1.2c0.3-0.2,0.8-0.3,1.6-0.3c0.6,0,0.9,0.1,1.1,0.2
	s0.3,0.5,0.3,1v1.3c0,0.5,0,0.7,0.1,0.9c0.1,0.1,0.3,0.2,0.7,0.2h1.7c0.9,0,1.4,0.4,1.4,1.3c0,0.8-0.4,1.3-1.3,1.3h-2
	c-0.3,0-0.5,0.1-0.6,0.2S199.1,8,199.1,8.2L199.1,8.2z M187.3,12.3v-0.5c-0.1,0.1-0.8,0.3-2.1,0.6c-0.9,0.2-1.3,0.6-1.3,1
	c0,0.7,0.4,1.1,1.3,1.1C186.6,14.5,187.3,13.7,187.3,12.3L187.3,12.3z M190.8,17.4c-1.3,0-2.2-0.5-2.6-1.6c-1.1,1-2.5,1.6-4,1.6
	c-1.1,0.1-2.2-0.3-3-1c-0.8-0.7-1.2-1.6-1.1-2.7c0-1.7,0.7-2.8,2.2-3.3c0.6-0.2,1.3-0.4,2.2-0.5c1.1-0.2,1.9-0.4,2.3-0.7
	s0.6-0.6,0.6-1.1c0-0.4-0.2-0.7-0.5-0.9c-0.3-0.3-0.7-0.4-1.2-0.4c-0.5,0-0.8,0.2-0.8,0.5c0,0.1,0,0.2,0,0.3v0.1
	c0,0.5-0.2,0.8-0.6,1.1c-0.4,0.3-0.8,0.5-1.4,0.5c-0.6,0-1.2-0.2-1.6-0.6c-0.4-0.4-0.6-0.9-0.6-1.4c0-0.9,0.5-1.5,1.4-2
	c0.9-0.5,2.2-0.8,3.8-0.8c1.7,0,3,0.3,3.9,0.8c0.9,0.6,1.4,1.6,1.4,3.2v5c0,0.5,0.1,0.8,0.4,0.8c0.2,0,0.4,0,0.5,0
	c0.4,0,0.7,0.1,0.9,0.4c0.3,0.3,0.4,0.6,0.4,0.9c0,0.5-0.2,1-0.7,1.3C192.1,17.2,191.5,17.4,190.8,17.4L190.8,17.4z M172.7,5.7v2
	c0.2-0.8,0.5-1.4,0.8-1.8c0.7-0.9,1.8-1.4,2.9-1.3c0.9,0,1.6,0.3,2.2,0.9s0.9,1.3,0.9,2.1c0,0.7-0.2,1.2-0.6,1.6
	c-0.4,0.4-0.9,0.6-1.5,0.6c-0.5,0-0.8-0.2-1.1-0.4c-0.3-0.3-0.5-0.6-0.5-1c0-0.2,0.1-0.5,0.3-0.9h-0.1c-1.1,0-1.8,0.6-2.2,1.7
	c-0.3,0.9-0.4,2-0.4,3.2v0.9c0,0.6,0.1,1,0.1,1.1c0.1,0.1,0.2,0.1,0.3,0.1c0.1,0,0.3,0,0.6-0.1c0.3-0.1,0.4-0.1,0.6-0.1
	c0.4,0,0.6,0.1,0.9,0.4c0.2,0.3,0.4,0.5,0.4,0.9c0,0.5-0.2,0.9-0.5,1.2s-0.7,0.5-1.1,0.5c-0.2,0-0.7,0-1.3-0.1c-1-0.1-2.1-0.1-3.1,0
	c-0.8,0.1-1.2,0.1-1.4,0.1c-1,0-1.5-0.5-1.5-1.6c0-0.9,0.4-1.3,1.1-1.3c0.1,0,0.3,0,0.4,0.1c0.2,0,0.3,0.1,0.4,0.1
	c0.3,0,0.4-0.5,0.4-1.3V9.1c0-0.9-0.1-1.4-0.4-1.4c-0.1,0-0.2,0-0.4,0.1s-0.3,0.1-0.4,0.1c-0.8,0-1.1-0.4-1.1-1.3
	c0-0.5,0.1-0.9,0.4-1.2c0.3-0.3,0.6-0.5,1-0.5c0.2,0,0.4,0,0.7,0.1c0.5,0.1,1.1,0.1,1.7,0c0.4-0.1,0.6-0.1,0.8-0.1
	C172.5,4.9,172.7,5.2,172.7,5.7L172.7,5.7z M158.7,8.8c0,0.1,0,0.2,0.1,0.3s0.2,0.1,0.5,0.1h2.7c0.2,0,0.4,0,0.4-0.1
	c0.1,0,0.1-0.2,0.1-0.3c0-0.4-0.2-0.8-0.6-1.1c-0.4-0.3-0.8-0.5-1.3-0.5c-0.6,0-1.2,0.3-1.6,0.8C158.9,8.2,158.7,8.5,158.7,8.8
	L158.7,8.8z M166.4,10c0,0.7-0.1,1.1-0.3,1.3c-0.2,0.2-0.5,0.3-1,0.3h-5.9c-0.3,0-0.5,0-0.5,0.1c-0.1,0.1-0.1,0.2-0.1,0.4
	c0,0.7,0.2,1.2,0.6,1.7c0.4,0.5,1,0.7,1.6,0.7c0.7,0,1.4-0.4,2.1-1.1c0.5-0.5,1-0.8,1.6-0.8c0.5,0,0.9,0.1,1.2,0.4
	c0.3,0.3,0.4,0.6,0.4,1c0,0.9-0.5,1.7-1.5,2.4c-1.1,0.7-2.4,1-3.7,1c-1.9,0-3.4-0.6-4.6-1.7c-1.2-1.2-1.8-2.9-1.7-4.6
	c0-1.9,0.6-3.5,1.7-4.7c1.2-1.2,2.8-1.9,4.4-1.8c1.7,0,3.1,0.5,4.1,1.5C165.9,7.1,166.4,8.5,166.4,10L166.4,10z M143.5,5.6v1.2
	c1.2-1.5,2.6-2.2,4.2-2.2c1.7,0,2.8,0.6,3.5,1.9c0.4,0.6,0.6,1.7,0.6,3v3.6c0,0.8,0.2,1.2,0.5,1.2c0.1,0,0.2,0,0.4-0.1
	c0.1,0,0.2,0,0.4,0c0.7,0,1.1,0.4,1.1,1.2c0,1.1-0.5,1.7-1.4,1.7c-0.3,0-0.6,0-1.1-0.1c-0.5-0.1-0.9-0.1-1.1-0.1
	c-0.4,0-0.8,0-1.3,0.1c-0.4,0.1-0.8,0.1-1.1,0.1c-0.9,0-1.4-0.5-1.4-1.5c0-0.8,0.3-1.3,1-1.3c0.4,0,0.6-0.2,0.6-0.6v-3.4
	c0-0.9-0.1-1.6-0.4-2c-0.2-0.4-0.6-0.6-1.2-0.6c-0.7,0-1.2,0.2-1.6,0.7c-0.4,0.5-0.7,1.1-0.6,1.7v2.5c0,0.7,0,1.2,0.1,1.3
	c0.1,0.2,0.2,0.3,0.6,0.3c0.6,0.1,0.9,0.5,0.9,1.3c0,1-0.4,1.5-1.3,1.5c-0.2,0-0.5,0-0.9-0.1c-0.6-0.1-1-0.1-1.3-0.1
	c-0.3,0-0.7,0-1.3,0.1c-0.6,0.1-1,0.1-1.3,0.1c-1,0-1.5-0.5-1.5-1.6c0-0.9,0.4-1.3,1.1-1.3c0.1,0,0.3,0,0.4,0.1
	c0.2,0,0.3,0.1,0.4,0.1c0.3,0,0.4-0.5,0.4-1.3V9.1c0-0.9-0.1-1.4-0.4-1.4c-0.1,0-0.2,0-0.4,0.1s-0.3,0.1-0.4,0.1
	c-0.8,0-1.1-0.4-1.1-1.3c0-0.5,0.1-0.9,0.4-1.2c0.3-0.3,0.6-0.5,1-0.5c0.1,0,0.4,0,0.8,0.1c0.2,0,0.4,0.1,0.6,0.1c0.2,0,0.5,0,1-0.1
	l0.8-0.1C143.3,4.9,143.5,5.2,143.5,5.6L143.5,5.6z M129.5,8.8c0,0.1,0,0.2,0.1,0.2s0.2,0.1,0.5,0.1h2.7c0.2,0,0.4,0,0.4-0.1
	c0.1,0,0.1-0.2,0.1-0.3c0-0.4-0.2-0.8-0.6-1.1c-0.4-0.3-0.8-0.5-1.3-0.5c-0.6,0-1.2,0.3-1.6,0.8C129.6,8.2,129.5,8.5,129.5,8.8z
	 M137.1,10c0,0.7-0.1,1.1-0.3,1.3c-0.2,0.2-0.5,0.3-1,0.3H130c-0.3,0-0.5,0-0.5,0.1c-0.1,0.1-0.1,0.2-0.1,0.4c0,0.7,0.2,1.2,0.6,1.7
	c0.4,0.5,1,0.7,1.6,0.7c0.7,0,1.4-0.4,2.1-1.1c0.5-0.5,1-0.8,1.6-0.8c0.5,0,0.9,0.1,1.2,0.4c0.3,0.3,0.4,0.6,0.4,1
	c0,0.9-0.5,1.7-1.5,2.4c-1.1,0.7-2.4,1-3.7,1c-1.9,0-3.4-0.6-4.6-1.7c-1.2-1.2-1.8-2.9-1.7-4.6c0-1.9,0.6-3.5,1.7-4.7
	c1.2-1.2,2.8-1.9,4.4-1.8c1.7,0,3.1,0.5,4.1,1.5C136.6,7.1,137.2,8.5,137.1,10L137.1,10z M117.8,16.7c-0.4,0-0.9,0-1.4-0.1
	c-0.7,0.3-1.1,0.7-1.1,1.1c0,0.8,0.9,1.3,2.8,1.3c1.9,0,2.9-0.4,2.9-1.3c0-0.7-0.6-1-1.9-1l-0.6,0H117.8z M118.3,7.1
	c-0.8,0-1.5,0.6-1.6,1.5c0,0,0,0.1,0,0.1c0,0.5,0.1,0.8,0.4,1.1c0.3,0.3,0.7,0.5,1.1,0.5s0.8-0.2,1.1-0.5c0.3-0.3,0.4-0.7,0.4-1.1
	c0-0.5-0.1-0.8-0.4-1.1C119.1,7.3,118.8,7.1,118.3,7.1z M118.1,4.6l0.9,0c0-0.8,0.3-1.5,0.8-1.9c0.6-0.5,1.4-0.7,2.2-0.7
	c0.8,0,1.4,0.2,1.9,0.6s0.8,0.9,0.8,1.5c0,0.4-0.1,0.7-0.4,1c-0.3,0.3-0.6,0.4-1,0.4c-0.4,0-0.8-0.2-1-0.5l-0.2-0.4
	c-0.1-0.1-0.2-0.2-0.3-0.2c-0.3,0-0.5,0.2-0.5,0.7c0,0.1,0,0.2,0,0.2c1.4,0.4,2.4,1.8,2.3,3.3c0,1.2-0.5,2.3-1.4,3
	c-1.1,0.8-2.4,1.2-3.8,1.1c-0.8,0-1.7-0.2-2.6-0.5l-0.1,0c-0.2,0.2-0.4,0.4-0.4,0.6c0,0.5,0.4,0.9,1.2,1c0.3,0,0.8,0.1,1.8,0.1h0.3
	l1.5,0c1.5,0,2.7,0.3,3.6,0.9c0.8,0.6,1.3,1.5,1.3,2.6c0,1.4-0.6,2.6-1.9,3.4c-1.3,0.8-2.9,1.2-5.1,1.2c-1.6,0.1-3.2-0.3-4.6-1.1
	c-1.2-0.7-1.7-1.7-1.7-2.8c0-1.3,0.8-2.2,2.4-2.7c-1.3-0.3-1.9-1-1.9-2.2c0-0.6,0.1-1.1,0.4-1.5s0.8-0.7,1.5-1
	c-0.5-0.6-0.9-1.3-0.9-2.1c0-1.1,0.5-2.1,1.4-2.8C115.6,4.9,116.8,4.5,118.1,4.6L118.1,4.6z M102,0.9c0.4,0,0.7,0.3,0.7,0.9v11.3
	c0,0.8,0.2,1.2,0.5,1.2c0.1,0,0.2,0,0.3,0c0.1,0,0.2,0,0.4,0c0.7,0,1.1,0.4,1.1,1.3c0,1.1-0.5,1.7-1.4,1.7l-1.8-0.2
	c-0.8-0.1-1.5,0-2.3,0c-0.7,0.1-1.1,0.1-1.3,0.1c-0.4,0-0.8-0.2-1.1-0.4c-0.3-0.3-0.4-0.7-0.4-1.2c0-0.9,0.4-1.3,1.2-1.3
	c0.1,0,0.2,0,0.4,0.1s0.3,0.1,0.4,0.1c0.3,0,0.4-0.4,0.4-1.3V5c0-0.9-0.1-1.3-0.4-1.3c-0.1,0-0.3,0-0.4,0.1c-0.1,0-0.2,0-0.4,0
	c-0.8,0-1.2-0.4-1.2-1.3c0-0.5,0.1-0.9,0.4-1.2s0.6-0.4,1.1-0.4c0.1,0,0.4,0,0.8,0.1c0.6,0.1,1,0.1,1.2,0.1c0.4,0,0.7,0,1-0.1
	C101.5,0.9,101.8,0.9,102,0.9L102,0.9z M90.4,12.3v-0.5c-0.1,0.1-0.8,0.3-2.1,0.6c-0.9,0.2-1.3,0.6-1.3,1c0,0.7,0.4,1.1,1.3,1.1
	C89.7,14.5,90.4,13.7,90.4,12.3L90.4,12.3z M93.9,17.4c-1.3,0-2.2-0.5-2.6-1.6c-1.1,1-2.5,1.6-4,1.6c-1.1,0.1-2.2-0.3-3-1
	c-0.8-0.7-1.2-1.6-1.1-2.7c0-1.7,0.7-2.8,2.2-3.3c0.6-0.2,1.3-0.4,2.2-0.5c1.1-0.2,1.9-0.4,2.3-0.7c0.4-0.3,0.6-0.6,0.6-1.1
	c0-0.4-0.1-0.7-0.5-0.9c-0.3-0.3-0.7-0.4-1.2-0.4C88.2,6.9,88,7,88,7.4c0,0.1,0,0.2,0,0.3v0.1c0,0.5-0.2,0.8-0.6,1.1
	c-0.4,0.3-0.8,0.5-1.4,0.5c-0.6,0-1.2-0.2-1.6-0.6c-0.4-0.4-0.6-0.9-0.6-1.4c0-0.9,0.5-1.5,1.4-2c0.9-0.5,2.2-0.8,3.8-0.8
	c1.7,0,3,0.3,3.9,0.8C93.7,6,94.2,7,94.2,8.6v5c0,0.5,0.1,0.8,0.4,0.8c0.2,0,0.3,0,0.5,0c0.4,0,0.7,0.1,0.9,0.4
	c0.3,0.3,0.4,0.6,0.4,0.9c0,0.5-0.2,1-0.7,1.3C95.2,17.2,94.6,17.4,93.9,17.4L93.9,17.4z M74.1,8.8c0,0.1,0,0.2,0.1,0.2
	s0.2,0.1,0.5,0.1h2.7c0.2,0,0.4,0,0.4-0.1c0.1,0,0.1-0.2,0.1-0.3c0-0.4-0.2-0.8-0.6-1.1C77,7.3,76.5,7.2,76,7.2
	c-0.6,0-1.2,0.3-1.6,0.8C74.2,8.2,74.1,8.5,74.1,8.8z M81.7,10c0,0.7-0.1,1.1-0.3,1.3c-0.2,0.2-0.5,0.3-1,0.3h-5.9
	c-0.3,0-0.5,0-0.5,0.1C74,11.8,74,11.9,74,12.2c0,0.7,0.2,1.2,0.6,1.7c0.4,0.5,1,0.7,1.6,0.7c0.7,0,1.4-0.4,2.1-1.1
	c0.5-0.5,1-0.8,1.6-0.8c0.5,0,0.9,0.1,1.2,0.4c0.3,0.3,0.4,0.6,0.4,1c0,0.9-0.5,1.7-1.5,2.4c-1.1,0.7-2.4,1-3.7,1
	c-1.9,0-3.4-0.6-4.6-1.7c-1.2-1.2-1.8-2.9-1.7-4.6c0-1.9,0.6-3.5,1.7-4.7c1.2-1.2,2.8-1.9,4.4-1.8c1.7,0,3.1,0.5,4.1,1.5
	C81.2,7.1,81.8,8.5,81.7,10z M60.7,7.8c-0.6,0-1.1,0.3-1.4,0.8c-0.4,0.7-0.6,1.5-0.6,2.3v0.3c0,1,0.2,1.7,0.6,2.3
	c0.4,0.6,0.9,0.8,1.5,0.8c0.7,0,1.3-0.3,1.7-0.9C62.8,12.8,63,12,63,11c0-0.8-0.2-1.7-0.6-2.3C61.9,8.1,61.4,7.8,60.7,7.8L60.7,7.8z
	 M59.8,4.8c1.2,0,2.3,0.5,3.4,1.4V4.5c0-0.6-0.2-0.9-0.6-0.9c-0.4,0-0.8,0.1-1.2,0.1c-0.3,0-0.6-0.1-0.8-0.4c-0.2-0.3-0.3-0.6-0.3-1
	c0-1,0.5-1.5,1.6-1.5c0.4,0,0.6,0,0.8,0C63.3,0.9,63.8,1,64,1c0.2,0,0.5,0,0.9,0c0.4,0,0.7,0,0.9,0c0.4,0,0.7,0.1,0.8,0.3
	c0.1,0.2,0.2,0.5,0.2,1v10.9c0,0.8,0.1,1.2,0.5,1.2c0.1,0,0.2,0,0.4-0.1c0.1,0,0.2,0,0.4,0c0.7,0,1,0.4,1,1.2c0,0.5-0.1,0.9-0.4,1.2
	c-0.2,0.3-0.6,0.5-1,0.5h-0.1l-0.8-0.2c-0.8-0.1-1.7-0.1-2.5,0.1c-0.5,0-0.7-0.3-0.7-0.9v-0.9c-0.7,1.4-2.2,2.2-3.8,2.1
	c-1.5,0-2.7-0.6-3.6-1.8c-1-1.3-1.5-2.9-1.4-4.6c0-1.9,0.5-3.4,1.4-4.5C57,5.4,58.4,4.7,59.8,4.8L59.8,4.8z M44.9,0.9
	c0.4,0,0.7,0.3,0.7,0.9v11.3c0,0.8,0.2,1.2,0.5,1.2c0.1,0,0.2,0,0.3,0c0.1,0,0.2,0,0.4,0c0.7,0,1.1,0.4,1.1,1.3
	c0,1.1-0.5,1.7-1.4,1.7L44.6,17c-0.8-0.1-1.5,0-2.3,0c-0.7,0.1-1.1,0.1-1.3,0.1c-0.4,0-0.8-0.2-1.1-0.4c-0.3-0.3-0.4-0.7-0.4-1.2
	c0-0.9,0.4-1.3,1.2-1.3c0.1,0,0.2,0,0.4,0.1s0.3,0.1,0.4,0.1c0.3,0,0.4-0.4,0.4-1.3V5c0-0.9-0.1-1.3-0.4-1.3c-0.1,0-0.3,0-0.4,0.1
	c-0.1,0-0.2,0-0.4,0c-0.8,0-1.2-0.4-1.2-1.3c0-0.5,0.1-0.9,0.4-1.2C40.2,1,40.6,0.9,41,0.9c0.1,0,0.4,0,0.8,0.1
	C42.4,1,42.8,1,43.1,1c0.4,0,0.7,0,1-0.1C44.4,0.9,44.7,0.9,44.9,0.9z M33.3,12.3v-0.5c-0.1,0.1-0.8,0.3-2.1,0.6
	c-0.9,0.2-1.3,0.6-1.3,1c0,0.7,0.4,1.1,1.3,1.1C32.6,14.5,33.3,13.7,33.3,12.3L33.3,12.3z M36.8,17.4c-1.3,0-2.2-0.5-2.6-1.6
	c-1.1,1-2.5,1.6-4,1.6c-1.1,0.1-2.2-0.3-3-1c-0.8-0.7-1.2-1.6-1.1-2.7c0-1.7,0.7-2.8,2.2-3.3c0.6-0.2,1.3-0.4,2.2-0.5
	c1.1-0.2,1.9-0.4,2.3-0.7c0.4-0.3,0.6-0.6,0.6-1.1c0-0.4-0.2-0.7-0.5-0.9c-0.3-0.3-0.7-0.4-1.2-0.4c-0.5,0-0.8,0.2-0.8,0.5
	c0,0.1,0,0.2,0,0.3v0.1c0,0.5-0.2,0.8-0.6,1.1c-0.4,0.3-0.8,0.5-1.4,0.5c-0.6,0-1.2-0.2-1.6-0.6c-0.4-0.4-0.6-0.9-0.6-1.4
	c0-0.9,0.5-1.5,1.4-2c0.9-0.5,2.2-0.8,3.8-0.8c1.7,0,3,0.3,3.9,0.8C36.6,6,37.1,7,37.1,8.6v5c0,0.5,0.1,0.8,0.4,0.8
	c0.2,0,0.3,0,0.5,0c0.4,0,0.7,0.1,0.9,0.4c0.3,0.3,0.4,0.6,0.4,0.9c0,0.5-0.2,1-0.7,1.3C38.1,17.2,37.5,17.4,36.8,17.4z M17,8.8
	C17,8.9,17,9,17,9s0.2,0.1,0.5,0.1h2.7c0.2,0,0.4,0,0.4-0.1c0.1,0,0.1-0.2,0.1-0.3c0-0.4-0.2-0.8-0.6-1.1c-0.4-0.3-0.8-0.5-1.3-0.5
	c-0.6,0-1.2,0.3-1.6,0.8C17.1,8.2,17,8.5,17,8.8z M24.6,10c0,0.7-0.1,1.1-0.3,1.3c-0.2,0.2-0.5,0.3-1,0.3h-5.9c-0.3,0-0.5,0-0.5,0.1
	c-0.1,0.1-0.1,0.2-0.1,0.4c0,0.7,0.2,1.2,0.7,1.7c0.4,0.5,1,0.7,1.6,0.7c0.7,0,1.4-0.4,2.1-1.1c0.5-0.5,1-0.8,1.6-0.8
	c0.5,0,0.9,0.1,1.2,0.4c0.3,0.3,0.4,0.6,0.4,1c0,0.9-0.5,1.7-1.5,2.4c-1.1,0.7-2.4,1-3.7,1c-1.9,0-3.4-0.6-4.6-1.7
	c-1.2-1.2-1.8-2.9-1.7-4.6c0-1.9,0.6-3.5,1.7-4.7c1.2-1.2,2.8-1.9,4.4-1.8c1.7,0,3.1,0.5,4.1,1.5C24.1,7.1,24.7,8.5,24.6,10L24.6,10
	z M5.6,5.7v2c0.2-0.8,0.5-1.4,0.8-1.8C7.1,5,8.2,4.5,9.4,4.6c0.9,0,1.6,0.3,2.2,0.9s0.9,1.3,0.9,2.1c0,0.7-0.2,1.2-0.6,1.6
	c-0.4,0.4-0.9,0.6-1.5,0.6c-0.4,0-0.8-0.2-1.1-0.4C9,9.1,8.8,8.7,8.8,8.3c0-0.2,0.1-0.5,0.3-0.9H9C7.9,7.4,7.2,8,6.8,9.1
	c-0.3,0.9-0.4,2-0.4,3.2v0.9c0,0.6,0.1,1,0.1,1.1c0.1,0.1,0.2,0.1,0.3,0.1c0.1,0,0.3,0,0.6-0.1c0.3-0.1,0.4-0.1,0.6-0.1
	c0.4,0,0.7,0.1,0.9,0.4c0.3,0.3,0.4,0.5,0.4,0.9c0,0.5-0.2,0.9-0.5,1.2s-0.7,0.5-1.1,0.5c-0.2,0-0.7,0-1.3-0.1c-1-0.1-2.1-0.1-3.1,0
	c-0.8,0.1-1.2,0.1-1.4,0.1c-1,0-1.5-0.5-1.5-1.6c0-0.9,0.4-1.3,1.2-1.3c0.1,0,0.3,0,0.4,0.1c0.2,0,0.3,0.1,0.4,0.1
	c0.3,0,0.4-0.5,0.4-1.3V9.1c0-0.9-0.1-1.4-0.4-1.4c-0.1,0-0.2,0-0.4,0.1S1.6,7.9,1.5,7.9c-0.8,0-1.2-0.4-1.2-1.3
	c0-0.5,0.1-0.9,0.4-1.2c0.3-0.3,0.6-0.5,1-0.5c0.2,0,0.4,0,0.7,0.1c0.5,0.1,1.1,0.1,1.7,0C4.4,5,4.7,4.9,4.9,4.9
	C5.4,4.9,5.6,5.2,5.6,5.7L5.6,5.7z"/>
</svg>
